<mxfile host="app.diagrams.net" modified="2021-04-30T17:17:46.040Z" agent="5.0 (X11; Linux x86_64) AppleWebKit/537.36 (KHTML, like Gecko) Chrome/90.0.4430.93 Safari/537.36" etag="Is1JvdzdCnVhYIYHtNmt" version="13.10.4" type="github">
  <diagram id="C5RBs43oDa-KdzZeNtuy" name="Page-1">
    <mxGraphModel dx="1997" dy="964" grid="1" gridSize="10" guides="1" tooltips="1" connect="1" arrows="1" fold="1" page="1" pageScale="1" pageWidth="827" pageHeight="1169" math="0" shadow="0">
      <root>
        <mxCell id="WIyWlLk6GJQsqaUBKTNV-0" />
        <mxCell id="WIyWlLk6GJQsqaUBKTNV-1" parent="WIyWlLk6GJQsqaUBKTNV-0" />
        <mxCell id="suz6fJ4d1pYRqsBfinAZ-0" value="User" style="swimlane;fontStyle=0;childLayout=stackLayout;horizontal=1;startSize=26;fillColor=none;horizontalStack=0;resizeParent=1;resizeParentMax=0;resizeLast=0;collapsible=1;marginBottom=0;direction=east;" vertex="1" parent="WIyWlLk6GJQsqaUBKTNV-1">
          <mxGeometry x="400" y="320" width="160" height="130" as="geometry">
            <mxRectangle x="190" y="190" width="60" height="26" as="alternateBounds" />
          </mxGeometry>
        </mxCell>
        <mxCell id="suz6fJ4d1pYRqsBfinAZ-1" value="+ UserID: string" style="text;strokeColor=none;fillColor=none;align=left;verticalAlign=top;spacingLeft=4;spacingRight=4;overflow=hidden;rotatable=0;points=[[0,0.5],[1,0.5]];portConstraint=eastwest;" vertex="1" parent="suz6fJ4d1pYRqsBfinAZ-0">
          <mxGeometry y="26" width="160" height="26" as="geometry" />
        </mxCell>
        <mxCell id="suz6fJ4d1pYRqsBfinAZ-2" value="+ Name: string" style="text;strokeColor=none;fillColor=none;align=left;verticalAlign=top;spacingLeft=4;spacingRight=4;overflow=hidden;rotatable=0;points=[[0,0.5],[1,0.5]];portConstraint=eastwest;" vertex="1" parent="suz6fJ4d1pYRqsBfinAZ-0">
          <mxGeometry y="52" width="160" height="26" as="geometry" />
        </mxCell>
        <mxCell id="suz6fJ4d1pYRqsBfinAZ-14" value="+ HouseholdID: string" style="text;strokeColor=none;fillColor=none;align=left;verticalAlign=top;spacingLeft=4;spacingRight=4;overflow=hidden;rotatable=0;points=[[0,0.5],[1,0.5]];portConstraint=eastwest;" vertex="1" parent="suz6fJ4d1pYRqsBfinAZ-0">
          <mxGeometry y="78" width="160" height="26" as="geometry" />
        </mxCell>
        <mxCell id="suz6fJ4d1pYRqsBfinAZ-3" value="+ Points: int" style="text;strokeColor=none;fillColor=none;align=left;verticalAlign=top;spacingLeft=4;spacingRight=4;overflow=hidden;rotatable=0;points=[[0,0.5],[1,0.5]];portConstraint=eastwest;" vertex="1" parent="suz6fJ4d1pYRqsBfinAZ-0">
          <mxGeometry y="104" width="160" height="26" as="geometry" />
        </mxCell>
        <mxCell id="suz6fJ4d1pYRqsBfinAZ-8" value="Task" style="swimlane;fontStyle=0;childLayout=stackLayout;horizontal=1;startSize=26;fillColor=none;horizontalStack=0;resizeParent=1;resizeParentMax=0;resizeLast=0;collapsible=1;marginBottom=0;" vertex="1" parent="WIyWlLk6GJQsqaUBKTNV-1">
          <mxGeometry x="160" y="320" width="160" height="260" as="geometry" />
        </mxCell>
        <mxCell id="suz6fJ4d1pYRqsBfinAZ-9" value="+ TaskID: string" style="text;strokeColor=none;fillColor=none;align=left;verticalAlign=top;spacingLeft=4;spacingRight=4;overflow=hidden;rotatable=0;points=[[0,0.5],[1,0.5]];portConstraint=eastwest;" vertex="1" parent="suz6fJ4d1pYRqsBfinAZ-8">
          <mxGeometry y="26" width="160" height="26" as="geometry" />
        </mxCell>
        <mxCell id="suz6fJ4d1pYRqsBfinAZ-16" value="+ Name: string" style="text;strokeColor=none;fillColor=none;align=left;verticalAlign=top;spacingLeft=4;spacingRight=4;overflow=hidden;rotatable=0;points=[[0,0.5],[1,0.5]];portConstraint=eastwest;" vertex="1" parent="suz6fJ4d1pYRqsBfinAZ-8">
          <mxGeometry y="52" width="160" height="26" as="geometry" />
        </mxCell>
        <mxCell id="suz6fJ4d1pYRqsBfinAZ-20" value="+ UserID: string" style="text;strokeColor=none;fillColor=none;align=left;verticalAlign=top;spacingLeft=4;spacingRight=4;overflow=hidden;rotatable=0;points=[[0,0.5],[1,0.5]];portConstraint=eastwest;" vertex="1" parent="suz6fJ4d1pYRqsBfinAZ-8">
          <mxGeometry y="78" width="160" height="26" as="geometry" />
        </mxCell>
        <mxCell id="suz6fJ4d1pYRqsBfinAZ-18" value="+ HouseholdID: string" style="text;strokeColor=none;fillColor=none;align=left;verticalAlign=top;spacingLeft=4;spacingRight=4;overflow=hidden;rotatable=0;points=[[0,0.5],[1,0.5]];portConstraint=eastwest;" vertex="1" parent="suz6fJ4d1pYRqsBfinAZ-8">
          <mxGeometry y="104" width="160" height="26" as="geometry" />
        </mxCell>
        <mxCell id="suz6fJ4d1pYRqsBfinAZ-10" value="+ Date: int" style="text;strokeColor=none;fillColor=none;align=left;verticalAlign=top;spacingLeft=4;spacingRight=4;overflow=hidden;rotatable=0;points=[[0,0.5],[1,0.5]];portConstraint=eastwest;" vertex="1" parent="suz6fJ4d1pYRqsBfinAZ-8">
          <mxGeometry y="130" width="160" height="26" as="geometry" />
        </mxCell>
        <mxCell id="suz6fJ4d1pYRqsBfinAZ-19" value="+ Points: int" style="text;strokeColor=none;fillColor=none;align=left;verticalAlign=top;spacingLeft=4;spacingRight=4;overflow=hidden;rotatable=0;points=[[0,0.5],[1,0.5]];portConstraint=eastwest;" vertex="1" parent="suz6fJ4d1pYRqsBfinAZ-8">
          <mxGeometry y="156" width="160" height="26" as="geometry" />
        </mxCell>
        <mxCell id="suz6fJ4d1pYRqsBfinAZ-17" value="+ Recurring: bool" style="text;strokeColor=none;fillColor=none;align=left;verticalAlign=top;spacingLeft=4;spacingRight=4;overflow=hidden;rotatable=0;points=[[0,0.5],[1,0.5]];portConstraint=eastwest;" vertex="1" parent="suz6fJ4d1pYRqsBfinAZ-8">
          <mxGeometry y="182" width="160" height="26" as="geometry" />
        </mxCell>
        <mxCell id="suz6fJ4d1pYRqsBfinAZ-15" value="+ Done: bool" style="text;strokeColor=none;fillColor=none;align=left;verticalAlign=top;spacingLeft=4;spacingRight=4;overflow=hidden;rotatable=0;points=[[0,0.5],[1,0.5]];portConstraint=eastwest;" vertex="1" parent="suz6fJ4d1pYRqsBfinAZ-8">
          <mxGeometry y="208" width="160" height="26" as="geometry" />
        </mxCell>
        <mxCell id="suz6fJ4d1pYRqsBfinAZ-11" value="+ Votes: []string" style="text;strokeColor=none;fillColor=none;align=left;verticalAlign=top;spacingLeft=4;spacingRight=4;overflow=hidden;rotatable=0;points=[[0,0.5],[1,0.5]];portConstraint=eastwest;" vertex="1" parent="suz6fJ4d1pYRqsBfinAZ-8">
          <mxGeometry y="234" width="160" height="26" as="geometry" />
        </mxCell>
        <mxCell id="suz6fJ4d1pYRqsBfinAZ-32" style="edgeStyle=orthogonalEdgeStyle;rounded=0;orthogonalLoop=1;jettySize=auto;html=1;" edge="1" parent="WIyWlLk6GJQsqaUBKTNV-1" source="suz6fJ4d1pYRqsBfinAZ-21" target="suz6fJ4d1pYRqsBfinAZ-18">
          <mxGeometry relative="1" as="geometry">
            <Array as="points">
              <mxPoint x="360" y="546" />
              <mxPoint x="360" y="437" />
            </Array>
          </mxGeometry>
        </mxCell>
        <mxCell id="suz6fJ4d1pYRqsBfinAZ-21" value="Household" style="swimlane;fontStyle=0;childLayout=stackLayout;horizontal=1;startSize=26;fillColor=none;horizontalStack=0;resizeParent=1;resizeParentMax=0;resizeLast=0;collapsible=1;marginBottom=0;" vertex="1" parent="WIyWlLk6GJQsqaUBKTNV-1">
          <mxGeometry x="400" y="507" width="160" height="78" as="geometry" />
        </mxCell>
        <mxCell id="suz6fJ4d1pYRqsBfinAZ-25" value="+ HouseholdID: string" style="text;strokeColor=none;fillColor=none;align=left;verticalAlign=top;spacingLeft=4;spacingRight=4;overflow=hidden;rotatable=0;points=[[0,0.5],[1,0.5]];portConstraint=eastwest;" vertex="1" parent="suz6fJ4d1pYRqsBfinAZ-21">
          <mxGeometry y="26" width="160" height="26" as="geometry" />
        </mxCell>
        <mxCell id="suz6fJ4d1pYRqsBfinAZ-22" value="+ Name: string" style="text;strokeColor=none;fillColor=none;align=left;verticalAlign=top;spacingLeft=4;spacingRight=4;overflow=hidden;rotatable=0;points=[[0,0.5],[1,0.5]];portConstraint=eastwest;" vertex="1" parent="suz6fJ4d1pYRqsBfinAZ-21">
          <mxGeometry y="52" width="160" height="26" as="geometry" />
        </mxCell>
        <mxCell id="suz6fJ4d1pYRqsBfinAZ-27" style="edgeStyle=orthogonalEdgeStyle;rounded=0;orthogonalLoop=1;jettySize=auto;html=1;" edge="1" parent="WIyWlLk6GJQsqaUBKTNV-1" source="suz6fJ4d1pYRqsBfinAZ-1" target="suz6fJ4d1pYRqsBfinAZ-20">
          <mxGeometry relative="1" as="geometry" />
        </mxCell>
        <mxCell id="suz6fJ4d1pYRqsBfinAZ-31" style="edgeStyle=orthogonalEdgeStyle;rounded=0;orthogonalLoop=1;jettySize=auto;html=1;entryX=1;entryY=0.5;entryDx=0;entryDy=0;" edge="1" parent="WIyWlLk6GJQsqaUBKTNV-1" source="suz6fJ4d1pYRqsBfinAZ-25" target="suz6fJ4d1pYRqsBfinAZ-14">
          <mxGeometry relative="1" as="geometry">
            <Array as="points">
              <mxPoint x="580" y="546" />
              <mxPoint x="580" y="411" />
            </Array>
          </mxGeometry>
        </mxCell>
        <mxCell id="suz6fJ4d1pYRqsBfinAZ-36" style="edgeStyle=orthogonalEdgeStyle;rounded=0;orthogonalLoop=1;jettySize=auto;html=1;exitX=0.07;exitY=0.4;exitDx=0;exitDy=0;exitPerimeter=0;" edge="1" parent="WIyWlLk6GJQsqaUBKTNV-1" source="suz6fJ4d1pYRqsBfinAZ-33" target="suz6fJ4d1pYRqsBfinAZ-35">
          <mxGeometry relative="1" as="geometry" />
        </mxCell>
        <mxCell id="suz6fJ4d1pYRqsBfinAZ-33" value="" style="ellipse;shape=cloud;whiteSpace=wrap;html=1;" vertex="1" parent="WIyWlLk6GJQsqaUBKTNV-1">
          <mxGeometry x="260" y="590" width="490" height="420" as="geometry" />
        </mxCell>
        <mxCell id="suz6fJ4d1pYRqsBfinAZ-34" value="" style="shape=image;html=1;verticalAlign=top;verticalLabelPosition=bottom;labelBackgroundColor=#ffffff;imageAspect=0;aspect=fixed;image=https://cdn4.iconfinder.com/data/icons/logos-brands-5/24/flutter-128.png" vertex="1" parent="WIyWlLk6GJQsqaUBKTNV-1">
          <mxGeometry x="164" y="830" width="30" height="30" as="geometry" />
        </mxCell>
        <mxCell id="suz6fJ4d1pYRqsBfinAZ-37" style="edgeStyle=orthogonalEdgeStyle;rounded=0;orthogonalLoop=1;jettySize=auto;html=1;entryX=0.07;entryY=0.4;entryDx=0;entryDy=0;entryPerimeter=0;" edge="1" parent="WIyWlLk6GJQsqaUBKTNV-1" source="suz6fJ4d1pYRqsBfinAZ-35" target="suz6fJ4d1pYRqsBfinAZ-33">
          <mxGeometry relative="1" as="geometry">
            <Array as="points">
              <mxPoint x="240" y="845" />
              <mxPoint x="240" y="758" />
            </Array>
          </mxGeometry>
        </mxCell>
        <mxCell id="suz6fJ4d1pYRqsBfinAZ-54" style="edgeStyle=orthogonalEdgeStyle;rounded=0;orthogonalLoop=1;jettySize=auto;html=1;" edge="1" parent="WIyWlLk6GJQsqaUBKTNV-1" source="suz6fJ4d1pYRqsBfinAZ-35" target="suz6fJ4d1pYRqsBfinAZ-44">
          <mxGeometry relative="1" as="geometry" />
        </mxCell>
        <mxCell id="suz6fJ4d1pYRqsBfinAZ-63" style="edgeStyle=orthogonalEdgeStyle;rounded=0;orthogonalLoop=1;jettySize=auto;html=1;entryX=0;entryY=0.5;entryDx=0;entryDy=0;" edge="1" parent="WIyWlLk6GJQsqaUBKTNV-1" source="suz6fJ4d1pYRqsBfinAZ-35" target="suz6fJ4d1pYRqsBfinAZ-60">
          <mxGeometry relative="1" as="geometry">
            <Array as="points">
              <mxPoint x="340" y="845" />
              <mxPoint x="340" y="900" />
              <mxPoint x="440" y="900" />
              <mxPoint x="440" y="925" />
            </Array>
          </mxGeometry>
        </mxCell>
        <mxCell id="suz6fJ4d1pYRqsBfinAZ-35" value="" style="pointerEvents=1;shadow=0;dashed=0;html=1;strokeColor=none;fillColor=#505050;labelPosition=center;verticalLabelPosition=bottom;verticalAlign=top;outlineConnect=0;align=center;shape=mxgraph.office.devices.laptop;" vertex="1" parent="WIyWlLk6GJQsqaUBKTNV-1">
          <mxGeometry x="130" y="810" width="98" height="70" as="geometry" />
        </mxCell>
        <mxCell id="suz6fJ4d1pYRqsBfinAZ-40" value="" style="shape=cylinder3;whiteSpace=wrap;html=1;boundedLbl=1;backgroundOutline=1;size=15;" vertex="1" parent="WIyWlLk6GJQsqaUBKTNV-1">
          <mxGeometry x="600" y="780" width="60" height="80" as="geometry" />
        </mxCell>
        <mxCell id="suz6fJ4d1pYRqsBfinAZ-38" value="" style="shape=image;html=1;verticalAlign=top;verticalLabelPosition=bottom;labelBackgroundColor=#ffffff;imageAspect=0;aspect=fixed;image=https://cdn4.iconfinder.com/data/icons/google-i-o-2016/512/google_firebase-2-128.png" vertex="1" parent="WIyWlLk6GJQsqaUBKTNV-1">
          <mxGeometry x="615" y="820" width="30" height="30" as="geometry" />
        </mxCell>
        <mxCell id="suz6fJ4d1pYRqsBfinAZ-42" value="Firestore" style="text;html=1;strokeColor=none;fillColor=none;align=center;verticalAlign=middle;whiteSpace=wrap;rounded=0;" vertex="1" parent="WIyWlLk6GJQsqaUBKTNV-1">
          <mxGeometry x="610" y="870" width="40" height="10" as="geometry" />
        </mxCell>
        <mxCell id="suz6fJ4d1pYRqsBfinAZ-46" style="edgeStyle=orthogonalEdgeStyle;rounded=0;orthogonalLoop=1;jettySize=auto;html=1;exitX=1;exitY=0.5;exitDx=0;exitDy=0;" edge="1" parent="WIyWlLk6GJQsqaUBKTNV-1" source="suz6fJ4d1pYRqsBfinAZ-44" target="suz6fJ4d1pYRqsBfinAZ-40">
          <mxGeometry relative="1" as="geometry" />
        </mxCell>
        <mxCell id="suz6fJ4d1pYRqsBfinAZ-44" value="" style="shape=hexagon;perimeter=hexagonPerimeter2;whiteSpace=wrap;html=1;fixedSize=1;" vertex="1" parent="WIyWlLk6GJQsqaUBKTNV-1">
          <mxGeometry x="450" y="780" width="120" height="80" as="geometry" />
        </mxCell>
        <mxCell id="suz6fJ4d1pYRqsBfinAZ-39" value="Cloud Run" style="html=1;fillColor=#5184F3;strokeColor=none;verticalAlign=top;labelPosition=center;verticalLabelPosition=bottom;align=center;spacingTop=-6;fontSize=11;fontStyle=1;fontColor=#999999;shape=mxgraph.gcp2.hexIcon;prIcon=cloud_run" vertex="1" parent="WIyWlLk6GJQsqaUBKTNV-1">
          <mxGeometry x="483.5" y="790.75" width="53" height="49.25" as="geometry" />
        </mxCell>
        <mxCell id="suz6fJ4d1pYRqsBfinAZ-45" value="API" style="text;html=1;strokeColor=none;fillColor=none;align=center;verticalAlign=middle;whiteSpace=wrap;rounded=0;" vertex="1" parent="WIyWlLk6GJQsqaUBKTNV-1">
          <mxGeometry x="450" y="810" width="40" height="20" as="geometry" />
        </mxCell>
        <mxCell id="suz6fJ4d1pYRqsBfinAZ-47" value="" style="shape=hexagon;perimeter=hexagonPerimeter2;whiteSpace=wrap;html=1;fixedSize=1;" vertex="1" parent="WIyWlLk6GJQsqaUBKTNV-1">
          <mxGeometry x="450" y="690" width="120" height="80" as="geometry" />
        </mxCell>
        <mxCell id="suz6fJ4d1pYRqsBfinAZ-49" style="edgeStyle=orthogonalEdgeStyle;rounded=0;orthogonalLoop=1;jettySize=auto;html=1;exitX=0.07;exitY=0.4;exitDx=0;exitDy=0;exitPerimeter=0;entryX=0;entryY=0.5;entryDx=0;entryDy=0;" edge="1" parent="WIyWlLk6GJQsqaUBKTNV-1" source="suz6fJ4d1pYRqsBfinAZ-33" target="suz6fJ4d1pYRqsBfinAZ-47">
          <mxGeometry relative="1" as="geometry">
            <Array as="points">
              <mxPoint x="294" y="730" />
            </Array>
          </mxGeometry>
        </mxCell>
        <mxCell id="suz6fJ4d1pYRqsBfinAZ-52" value="" style="shape=image;html=1;verticalAlign=top;verticalLabelPosition=bottom;labelBackgroundColor=#ffffff;imageAspect=0;aspect=fixed;image=https://cdn4.iconfinder.com/data/icons/google-i-o-2016/512/google_firebase-2-128.png" vertex="1" parent="WIyWlLk6GJQsqaUBKTNV-1">
          <mxGeometry x="492" y="690" width="38" height="38" as="geometry" />
        </mxCell>
        <mxCell id="suz6fJ4d1pYRqsBfinAZ-53" value="Firebase&lt;br&gt;Hosting" style="text;html=1;strokeColor=none;fillColor=none;align=center;verticalAlign=middle;whiteSpace=wrap;rounded=0;" vertex="1" parent="WIyWlLk6GJQsqaUBKTNV-1">
          <mxGeometry x="490" y="738" width="40" height="20" as="geometry" />
        </mxCell>
        <mxCell id="suz6fJ4d1pYRqsBfinAZ-55" value="Initial request" style="text;html=1;align=center;verticalAlign=middle;resizable=0;points=[];autosize=1;" vertex="1" parent="WIyWlLk6GJQsqaUBKTNV-1">
          <mxGeometry x="362" y="708" width="90" height="20" as="geometry" />
        </mxCell>
        <mxCell id="suz6fJ4d1pYRqsBfinAZ-56" value="API calls" style="text;html=1;align=center;verticalAlign=middle;resizable=0;points=[];autosize=1;" vertex="1" parent="WIyWlLk6GJQsqaUBKTNV-1">
          <mxGeometry x="384" y="800" width="60" height="20" as="geometry" />
        </mxCell>
        <mxCell id="suz6fJ4d1pYRqsBfinAZ-60" value="" style="shape=hexagon;perimeter=hexagonPerimeter2;whiteSpace=wrap;html=1;fixedSize=1;" vertex="1" parent="WIyWlLk6GJQsqaUBKTNV-1">
          <mxGeometry x="452" y="885" width="120" height="80" as="geometry" />
        </mxCell>
        <mxCell id="suz6fJ4d1pYRqsBfinAZ-61" value="" style="shape=image;html=1;verticalAlign=top;verticalLabelPosition=bottom;labelBackgroundColor=#ffffff;imageAspect=0;aspect=fixed;image=https://cdn4.iconfinder.com/data/icons/google-i-o-2016/512/google_firebase-2-128.png" vertex="1" parent="WIyWlLk6GJQsqaUBKTNV-1">
          <mxGeometry x="493" y="885" width="38" height="38" as="geometry" />
        </mxCell>
        <mxCell id="suz6fJ4d1pYRqsBfinAZ-62" value="Firebase&lt;br&gt;Auth" style="text;html=1;strokeColor=none;fillColor=none;align=center;verticalAlign=middle;whiteSpace=wrap;rounded=0;" vertex="1" parent="WIyWlLk6GJQsqaUBKTNV-1">
          <mxGeometry x="491" y="933" width="40" height="20" as="geometry" />
        </mxCell>
        <mxCell id="suz6fJ4d1pYRqsBfinAZ-64" value="Anonymous login" style="text;html=1;align=center;verticalAlign=middle;resizable=0;points=[];autosize=1;" vertex="1" parent="WIyWlLk6GJQsqaUBKTNV-1">
          <mxGeometry x="340" y="880" width="110" height="20" as="geometry" />
        </mxCell>
        <mxCell id="suz6fJ4d1pYRqsBfinAZ-67" value="Token" style="text;html=1;align=center;verticalAlign=middle;resizable=0;points=[];autosize=1;" vertex="1" parent="WIyWlLk6GJQsqaUBKTNV-1">
          <mxGeometry x="340" y="900" width="50" height="20" as="geometry" />
        </mxCell>
        <mxCell id="suz6fJ4d1pYRqsBfinAZ-68" value="JSON" style="text;html=1;align=center;verticalAlign=middle;resizable=0;points=[];autosize=1;" vertex="1" parent="WIyWlLk6GJQsqaUBKTNV-1">
          <mxGeometry x="340" y="820" width="50" height="20" as="geometry" />
        </mxCell>
        <mxCell id="suz6fJ4d1pYRqsBfinAZ-70" value="HTML/CSS/JS" style="text;html=1;align=center;verticalAlign=middle;resizable=0;points=[];autosize=1;" vertex="1" parent="WIyWlLk6GJQsqaUBKTNV-1">
          <mxGeometry x="300" y="728" width="90" height="20" as="geometry" />
        </mxCell>
      </root>
    </mxGraphModel>
  </diagram>
</mxfile>
